# Blender 5.0.0
# www.blender.org
o mesh_wall_block_lp_v001
v -0.500000 -0.000000 -2.006190
v 0.500000 -0.000000 -2.006190
v 0.500000 1.000000 -2.006190
v -0.500000 1.000000 -2.006190
v -0.500000 0.000000 -1.006190
v 0.500000 0.000000 -1.006190
v 0.500000 1.000000 -1.006190
v -0.500000 1.000000 -1.006190
vn 1.0000 -0.0000 -0.0000
vn -0.0000 1.0000 -0.0000
vn -1.0000 -0.0000 -0.0000
vn -0.0000 -0.0000 -1.0000
vn -0.0000 -0.0000 1.0000
vn -0.0000 -1.0000 -0.0000
vt 0.628019 -0.001144
vt 0.628019 0.249197
vt 0.367059 0.249197
vt 0.367059 -0.001144
vt 0.628019 0.499539
vt 0.367059 0.499539
vt 0.628019 0.749881
vt 0.367059 0.749881
vt 0.888979 0.499539
vt 0.888979 0.249197
vt 0.106100 0.499539
vt 0.106100 0.249197
vt 0.628019 1.000222
vt 0.367059 1.000222
s 0
f 8/1/1 5/2/1 1/3/1 4/4/1
f 6/5/2 2/6/2 1/3/2 5/2/2
f 7/7/3 3/8/3 2/6/3 6/5/3
f 7/9/4 6/5/4 5/2/4 8/10/4
f 3/11/5 4/12/5 1/3/5 2/6/5
f 7/7/6 8/13/6 4/14/6 3/8/6
