# Blender 5.0.0
# www.blender.org
o mesh_aqua_orb_lp_v001
v -0.000000 -0.609735 -0.000000
v 0.609735 0.000000 0.000000
v -0.000000 0.000000 -0.609735
v -0.609735 0.000000 0.000000
v -0.000000 -0.000000 0.609735
v -0.000000 0.609735 0.000000
vn 0.5774 -0.5774 -0.5774
vn -0.5774 -0.5774 -0.5774
vn -0.5774 -0.5774 0.5774
vn 0.5774 -0.5774 0.5774
vn 0.5774 0.5774 -0.5774
vn -0.5774 0.5774 -0.5774
vn -0.5774 0.5774 0.5774
vn 0.5774 0.5774 0.5774
vt 0.434131 0.485586
vt 0.085905 0.131008
vt 0.085905 0.868992
s 0
f 1/1/1 3/2/1 2/3/1
f 1/1/2 4/2/2 3/3/2
f 1/1/3 5/2/3 4/3/3
f 1/1/4 2/2/4 5/3/4
f 6/1/5 2/2/5 3/3/5
f 6/1/6 3/2/6 4/3/6
f 6/1/7 4/2/7 5/3/7
f 6/1/8 5/2/8 2/3/8
