# Blender 5.0.0
# www.blender.org
o mesh_wall_block_lp_v001
v -0.500000 -0.500000 0.500000
v -0.500000 -0.500000 -0.500000
v -0.500000 0.500000 -0.500000
v -0.500000 0.500000 0.500000
v 0.500000 -0.500000 0.500000
v 0.500000 -0.500000 -0.500000
v 0.500000 0.500000 -0.500000
v 0.500000 0.500000 0.500000
vn -0.0000 -0.0000 1.0000
vn -0.0000 -1.0000 -0.0000
vn -0.0000 -0.0000 -1.0000
vn 1.0000 -0.0000 -0.0000
vn -1.0000 -0.0000 -0.0000
vn -0.0000 1.0000 -0.0000
vt 0.028655 0.499940
vt 0.499941 0.499940
vt 0.499941 0.029904
vt 0.028655 0.029904
vt 0.973788 0.502400
vt 0.973788 0.029904
vt 0.028655 0.979459
vt 0.499941 0.979459
s 0
f 8/1/1 4/2/1 1/3/1 5/4/1
f 6/5/2 5/6/2 1/3/2 2/2/2
f 7/2/3 6/3/3 2/4/3 3/1/3
f 7/1/4 8/2/4 5/3/4 6/4/4
f 3/2/5 2/3/5 1/4/5 4/1/5
f 7/2/6 3/1/6 4/7/6 8/8/6
