# Blender 5.0.0
# www.blender.org
o mesh_aqua_orb_lp_v002
v -0.500000 0.000000 0.500000
v 0.500000 0.000000 0.500000
v -0.500000 0.000000 -0.500000
v 0.500000 0.000000 -0.500000
v -0.451220 0.092751 -0.451220
v -0.500000 0.043971 -0.500000
v -0.475610 0.086216 -0.475610
v -0.493465 0.068361 -0.493465
v -0.500000 0.043971 0.500000
v -0.451220 0.092751 0.451220
v -0.493465 0.068361 0.493465
v -0.475610 0.086216 0.475610
v 0.500000 0.043971 0.500000
v 0.451220 0.092751 0.451220
v 0.493465 0.068361 0.493465
v 0.475610 0.086216 0.475610
v 0.500000 0.043971 -0.500000
v 0.451220 0.092751 -0.451220
v 0.493465 0.068361 -0.493465
v 0.475610 0.086216 -0.475610
vn -0.0000 -1.0000 -0.0000
vn -0.9659 0.2588 -0.0000
vn -0.7071 0.7071 -0.0000
vn -0.2588 0.9659 -0.0000
vn -0.0000 0.2588 0.9659
vn -0.0000 0.7071 0.7071
vn -0.0000 0.9659 0.2588
vn 0.9659 0.2588 -0.0000
vn 0.7071 0.7071 -0.0000
vn 0.2588 0.9659 -0.0000
vn -0.0000 0.2588 -0.9659
vn -0.0000 0.7071 -0.7071
vn -0.0000 0.9659 -0.2588
vn -1.0000 -0.0000 -0.0000
vn -0.0000 1.0000 -0.0000
vn -0.0000 -0.0000 -1.0000
vn -0.0000 -0.0000 1.0000
vn 1.0000 -0.0000 -0.0000
vt 0.401393 0.602166
vt 0.401393 0.550062
vt 0.349288 0.550062
vt 0.349288 0.602166
vt 0.401223 0.601996
vt 0.401223 0.550232
vt 0.400122 0.600896
vt 0.400122 0.551332
vt 0.398851 0.599625
vt 0.398851 0.552603
vt 0.349459 0.601996
vt 0.350559 0.600896
vt 0.351830 0.599625
vt 0.349458 0.550232
vt 0.350559 0.551332
vt 0.351830 0.552603
s 0
f 1/1/1 3/2/1 4/3/1 2/4/1
f 6/2/2 9/1/2 11/5/2 8/6/2
f 8/6/3 11/5/3 12/7/3 7/8/3
f 7/8/4 12/7/4 10/9/4 5/10/4
f 9/1/5 13/4/5 15/11/5 11/5/5
f 11/5/6 15/11/6 16/12/6 12/7/6
f 12/7/7 16/12/7 14/13/7 10/9/7
f 13/4/8 17/3/8 19/14/8 15/11/8
f 15/11/9 19/14/9 20/15/9 16/12/9
f 16/12/10 20/15/10 18/16/10 14/13/10
f 17/3/11 6/2/11 8/6/11 19/14/11
f 19/14/12 8/6/12 7/8/12 20/15/12
f 20/15/13 7/8/13 5/10/13 18/16/13
f 3/2/14 1/1/14 9/1/14 6/2/14
f 10/9/15 14/13/15 18/16/15 5/10/15
f 4/3/16 3/2/16 6/2/16 17/3/16
f 1/1/17 2/4/17 13/4/17 9/1/17
f 2/4/18 4/3/18 17/3/18 13/4/18
