# Blender 5.0.0
# www.blender.org
o mesh_vehicle_kart_lp_v001
v -0.336062 -0.106986 0.577714
v -0.336062 -0.106986 -0.622286
v 0.363939 -0.106986 -0.622286
v 0.363938 -0.106986 0.577714
v 0.363938 0.063160 0.577714
v -0.336062 0.063160 -0.622286
v 0.363939 0.063160 -0.622286
v -0.336062 0.063160 0.577714
v -0.336062 -0.106986 0.495573
v -0.336062 -0.106986 -0.157503
v -0.336062 -0.106986 -0.437399
v 0.363938 -0.106986 -0.437399
v 0.363938 -0.106986 -0.157503
v 0.363938 -0.106986 0.495573
v 0.363938 0.063160 -0.437399
v 0.363938 0.063160 -0.157503
v 0.363938 0.063160 0.495573
v -0.336062 0.063160 0.495573
v -0.336062 0.063160 -0.157503
v -0.336062 0.063160 -0.437399
v 0.210880 0.185384 0.058453
v 0.210880 0.185384 0.373247
v -0.183003 0.185384 0.373247
v -0.183003 0.185384 0.058453
v 0.409157 -0.049791 -0.698965
v -0.381281 -0.049791 -0.698965
v 0.409157 -0.049791 0.656072
v -0.381281 -0.049791 0.656072
v -0.381281 -0.049791 0.563317
v -0.381281 -0.049791 -0.174134
v -0.381281 -0.049791 -0.490192
v 0.409157 -0.049791 -0.490192
v 0.409157 -0.049791 -0.174134
v 0.409157 -0.049791 0.563318
vn -0.0000 0.5617 -0.8274
vn 0.9284 0.3717 -0.0000
vn -0.9284 0.3717 -0.0000
vn -0.0000 0.5700 0.8216
vn -0.0000 -1.0000 -0.0000
vn -0.0000 1.0000 -0.0000
vn -0.0000 0.7074 0.7068
vn -0.6240 0.7814 -0.0000
vn 0.6240 0.7814 -0.0000
vn -0.0000 0.8703 -0.4926
vn 0.7845 -0.6202 -0.0000
vn -0.7845 -0.6202 -0.0000
vn -0.0000 -0.8077 0.5896
vn -0.0000 -0.8016 -0.5979
vt 0.095928 0.657835
vt 0.119338 0.651925
vt 0.119338 0.316825
vt 0.095928 0.310915
vt 0.873958 0.321010
vt 0.838179 0.321010
vt 0.884044 0.318387
vt 0.903484 0.310999
vt 0.200214 0.647740
vt 0.228152 0.647740
vt 0.884044 0.650363
vt 0.903484 0.657751
vt 0.220350 0.647740
vt 0.095928 0.647740
vt 0.095928 0.321010
vt 0.220350 0.321010
vt 0.228152 0.321010
vt 0.838179 0.647740
vt 0.765885 0.392451
vt 0.765885 0.576299
vt 0.411230 0.647740
vt 0.411230 0.321010
vt 0.903484 0.647740
vt 0.848206 0.647740
vt 0.848206 0.321010
vt 0.903484 0.321010
vt 0.408710 0.647740
vt 0.408710 0.321010
vt 0.408710 0.647740
vt 0.220350 0.647740
vt 0.220350 0.321010
vt 0.408710 0.321010
vt 0.873958 0.647740
vt 0.402443 0.647740
vt 0.200214 0.321010
vt 0.402443 0.321010
vt 0.554040 0.392451
vt 0.554040 0.576299
vt 0.407492 0.576299
vt 0.407492 0.392451
vt 0.408710 0.321010
vt 0.220350 0.321010
vt 0.408710 0.321010
vt 0.220350 0.321010
vt 0.408710 0.647740
vt 0.220350 0.647740
vt 0.408710 0.647740
vt 0.220350 0.647740
s 0
f 26/1/1 6/2/1 7/3/1 25/4/1
f 34/5/2 17/6/2 5/7/2 27/8/2
f 31/9/3 20/10/3 6/2/3 26/1/3
f 27/8/4 5/7/4 8/11/4 28/12/4
f 11/13/5 2/14/5 3/15/5 12/16/5
f 20/10/6 15/17/6 7/3/6 6/2/6
f 8/11/6 5/7/6 17/6/6 18/18/6
f 17/6/7 22/19/7 23/20/7 18/18/7
f 19/21/6 16/22/6 15/17/6 20/10/6
f 1/23/5 9/24/5 14/25/5 4/26/5
f 9/24/5 10/27/5 13/28/5 14/25/5
f 10/29/5 11/30/5 12/31/5 13/32/5
f 28/12/3 8/11/3 18/18/3 29/33/3
f 29/33/3 18/18/3 19/21/3 30/34/3
f 30/34/3 19/21/3 20/10/3 31/9/3
f 25/4/2 7/3/2 15/17/2 32/35/2
f 32/35/2 15/17/2 16/22/2 33/36/2
f 33/36/2 16/22/2 17/6/2 34/5/2
f 23/20/6 22/19/6 21/37/6 24/38/6
f 18/18/8 23/20/8 24/38/8 19/21/8
f 16/22/9 21/37/9 22/19/9 17/6/9
f 19/21/10 24/39/10 21/40/10 16/22/10
f 13/41/11 33/36/11 34/5/11 14/25/11
f 12/42/11 32/35/11 33/36/11 13/43/11
f 3/15/11 25/4/11 32/35/11 12/44/11
f 10/45/12 30/34/12 31/9/12 11/46/12
f 9/24/12 29/33/12 30/34/12 10/47/12
f 1/23/12 28/12/12 29/33/12 9/24/12
f 4/26/13 27/8/13 28/12/13 1/23/13
f 11/48/12 31/9/12 26/1/12 2/14/12
f 14/25/11 34/5/11 27/8/11 4/26/11
f 2/14/14 26/1/14 25/4/14 3/15/14
