# Blender 5.0.0
# www.blender.org
o mesh_coin_token_lp_v001
v 0.380000 0.040000 0.000000
v 0.190000 0.040000 -0.329090
v -0.190000 0.040000 -0.329090
v -0.380000 0.040000 0.000000
v -0.190000 0.040000 0.329090
v 0.190000 0.040000 0.329090
v 0.380000 -0.040000 0.000000
v 0.190000 -0.040000 -0.329090
v -0.190000 -0.040000 -0.329090
v -0.380000 -0.040000 0.000000
v -0.190000 -0.040000 0.329090
v 0.190000 -0.040000 0.329090
v 0.000000 0.040000 0.000000
v 0.000000 -0.040000 0.000000
vn -0.0000 1.0000 -0.0000
vn -0.0000 -1.0000 -0.0000
vn 0.8660 -0.0000 -0.5000
vn -0.0000 -0.0000 -1.0000
vn -0.8660 -0.0000 -0.5000
vn -0.8660 -0.0000 0.5000
vn -0.0000 -0.0000 1.0000
vn 0.8660 -0.0000 0.5000
vt 0.496468 0.495615
vt 0.243842 0.321695
vt 0.520774 0.189874
vt 0.496739 0.495221
vt 0.773671 0.363400
vt 0.749365 0.669141
vt 0.560237 0.514838
vt 0.552300 0.526367
vt 0.524919 0.507517
vt 0.532856 0.495989
vt 0.773400 0.363794
vt 0.521045 0.189480
vt 0.470159 0.469817
vt 0.478095 0.458289
vt 0.749094 0.669535
vt 0.244113 0.321301
vt 0.442778 0.450967
vt 0.450715 0.439439
vt 0.472162 0.801356
vt 0.219807 0.627042
vt 0.544363 0.537896
vt 0.516983 0.519046
vt 0.219535 0.627436
vt 0.472433 0.800962
vt 0.462222 0.481346
vt 0.434841 0.462496
s 0
f 13/1/1 1/2/1 2/3/1
f 14/4/2 8/5/2 7/6/2
f 1/7/3 7/8/3 8/9/3
f 1/7/3 8/9/3 2/10/3
f 13/1/1 2/3/1 3/11/1
f 14/4/2 9/12/2 8/5/2
f 2/10/4 8/9/4 9/13/4
f 2/10/4 9/13/4 3/14/4
f 13/1/1 3/11/1 4/15/1
f 14/4/2 10/16/2 9/12/2
f 3/14/5 9/13/5 10/17/5
f 3/14/5 10/17/5 4/18/5
f 13/1/1 4/15/1 5/19/1
f 14/4/2 11/20/2 10/16/2
f 4/8/6 10/21/6 11/22/6
f 4/8/6 11/22/6 5/9/6
f 13/1/1 5/19/1 6/23/1
f 14/4/2 12/24/2 11/20/2
f 5/9/7 11/22/7 12/25/7
f 5/9/7 12/25/7 6/13/7
f 13/1/1 6/23/1 1/2/1
f 14/4/2 7/6/2 12/24/2
f 6/13/8 12/25/8 7/26/8
f 6/13/8 7/26/8 1/17/8
