# Blender 5.0.0
# www.blender.org
o mesh_wall_block_lp_v001
v -0.500000 -0.500000 -0.500000
v 0.500000 -0.500000 -0.500000
v 0.500000 0.500000 -0.500000
v -0.500000 0.500000 -0.500000
v -0.500000 -0.500000 0.500000
v 0.500000 -0.500000 0.500000
v 0.500000 0.500000 0.500000
v -0.500000 0.500000 0.500000
vn -1.0000 -0.0000 -0.0000
vn -0.0000 -1.0000 -0.0000
vn 1.0000 -0.0000 -0.0000
vn -0.0000 -0.0000 1.0000
vn -0.0000 -0.0000 -1.0000
vn -0.0000 1.0000 -0.0000
vt 0.589191 0.738589
vt 0.598563 0.738589
vt 0.598563 0.729242
vt 0.589191 0.729242
vt 0.607986 0.738638
vt 0.607986 0.729242
vt 0.550444 0.740315
vt 0.550444 0.729752
vt 0.539853 0.729752
vt 0.539853 0.740315
vt 0.679960 0.707671
vt 0.627501 0.707671
vt 0.627501 0.761046
vt 0.679960 0.761046
s 0
f 8/1/1 4/2/1 1/3/1 5/4/1
f 6/5/2 5/6/2 1/3/2 2/2/2
f 7/7/3 6/8/3 2/9/3 3/10/3
f 7/10/4 8/7/4 5/8/4 6/9/4
f 3/7/5 2/8/5 1/9/5 4/10/5
f 7/11/6 3/12/6 4/13/6 8/14/6
