# Blender 5.0.0
# www.blender.org
o mesh_wall_block_lp_v001
v -0.467548 -0.500000 -0.467548
v -0.500000 -0.467548 -0.467548
v -0.467548 -0.467548 -0.500000
v 0.467548 -0.500000 -0.467548
v 0.467548 -0.467548 -0.500000
v 0.500000 -0.467548 -0.467548
v 0.500000 0.467548 -0.467548
v 0.467548 0.467548 -0.500000
v 0.467548 0.500000 -0.467548
v -0.500000 0.467548 -0.467548
v -0.467548 0.500000 -0.467548
v -0.467548 0.467548 -0.500000
v -0.500000 -0.467548 0.467548
v -0.467548 -0.500000 0.467548
v -0.467548 -0.467548 0.500000
v 0.467548 -0.500000 0.467548
v 0.500000 -0.467548 0.467548
v 0.467548 -0.467548 0.500000
v 0.467548 0.500000 0.467548
v 0.467548 0.467548 0.500000
v 0.500000 0.467548 0.467548
v -0.500000 0.467548 0.467548
v -0.467548 0.467548 0.500000
v -0.467548 0.500000 0.467548
v -0.467548 -0.500000 -0.467548
v -0.500000 -0.467548 -0.467548
v -0.467548 -0.467548 -0.500000
v 0.467548 -0.500000 -0.467548
v 0.467548 -0.467548 -0.500000
v 0.500000 -0.467548 -0.467548
v 0.500000 0.467548 -0.467548
v 0.467548 0.467548 -0.500000
v 0.467548 0.500000 -0.467548
v -0.500000 0.467548 -0.467548
v -0.467548 0.500000 -0.467548
v -0.467548 0.467548 -0.500000
v -0.500000 -0.467548 0.467548
v -0.467548 -0.500000 0.467548
v -0.467548 -0.467548 0.500000
v 0.467548 -0.500000 0.467548
v 0.500000 -0.467548 0.467548
v 0.467548 -0.467548 0.500000
v 0.467548 0.500000 0.467548
v 0.467548 0.467548 0.500000
v 0.500000 0.467548 0.467548
v -0.500000 0.467548 0.467548
v -0.467548 0.467548 0.500000
v -0.467548 0.500000 0.467548
vn -0.7071 0.7071 -0.0000
vn 0.7071 0.7071 -0.0000
vn 0.7071 -0.7071 -0.0000
vn -0.7071 -0.7071 -0.0000
vn 0.7071 -0.0000 0.7071
vn -0.0000 -0.7071 0.7071
vn -0.0000 0.7071 0.7071
vn -0.7071 -0.0000 0.7071
vn -0.0000 0.7071 -0.7071
vn -0.7071 -0.0000 -0.7071
vn 0.7071 -0.0000 -0.7071
vn -0.0000 -0.7071 -0.7071
vn -0.5773 0.5774 0.5773
vn 0.5773 0.5774 0.5773
vn 0.5774 -0.5773 0.5773
vn -0.5774 -0.5773 0.5773
vn -0.5774 0.5773 -0.5773
vn 0.5774 0.5773 -0.5773
vn 0.5773 -0.5774 -0.5773
vn -0.5773 -0.5774 -0.5773
vn -0.0000 -0.0000 -1.0000
vn -1.0000 -0.0000 -0.0000
vn -0.0000 -1.0000 -0.0000
vn 1.0000 -0.0000 -0.0000
vn -0.0000 1.0000 -0.0000
vn -0.0000 -0.0000 1.0000
vt 0.108227 0.739745
vt 0.118757 0.739745
vt 0.118757 0.739373
vt 0.108227 0.739373
vt 0.108227 0.728659
vt 0.118757 0.728659
vt 0.118757 0.728287
vt 0.108227 0.728287
vt 0.109112 0.729321
vt 0.109104 0.730969
vt 0.109161 0.730969
vt 0.109169 0.729320
vt 0.110804 0.729321
vt 0.110804 0.730969
vt 0.110861 0.730969
vt 0.110861 0.729321
vt 0.108259 0.728687
vt 0.108259 0.736973
vt 0.108547 0.736973
vt 0.108547 0.728687
vt 0.109160 0.731026
vt 0.110804 0.731026
vt 0.119123 0.739373
vt 0.119123 0.728659
vt 0.108913 0.728694
vt 0.108913 0.730542
vt 0.108977 0.730542
vt 0.108977 0.728694
vt 0.107861 0.728659
vt 0.107861 0.739373
vt 0.109021 0.728694
vt 0.109021 0.730542
vt 0.109085 0.730542
vt 0.109085 0.728694
vt 0.108581 0.728687
vt 0.108581 0.736973
vt 0.108870 0.736973
vt 0.108870 0.728687
vt 0.110804 0.729263
vt 0.109169 0.729263
vt 0.596185 0.147926
vt 0.596185 0.137520
vt 0.585751 0.137520
vt 0.585751 0.147926
vt 0.572593 0.598920
vt 0.624927 0.598920
vt 0.624927 0.546725
vt 0.572593 0.546725
vt 0.275475 0.947499
vt 0.275475 0.938713
vt 0.266663 0.938712
vt 0.266663 0.947454
vt 0.237164 0.456214
vt 0.237164 0.411918
vt 0.192749 0.411918
vt 0.192749 0.456214
vt 0.517545 0.704399
vt 0.461254 0.704399
vt 0.461254 0.761674
vt 0.517545 0.761674
vt 0.584679 0.148645
vt 0.594583 0.148645
vt 0.594583 0.138767
vt 0.584679 0.138767
s 0
f 34/1/1 46/2/1 48/3/1 35/4/1
f 33/5/2 43/6/2 45/7/2 31/8/2
f 30/9/3 41/10/3 40/11/3 28/12/3
f 25/13/4 38/14/4 37/15/4 26/16/4
f 41/17/5 45/18/5 44/19/5 42/20/5
f 38/14/6 40/11/6 42/21/6 39/22/6
f 43/6/7 48/3/7 47/23/7 44/24/7
f 39/25/8 47/26/8 46/27/8 37/28/8
f 32/29/9 36/30/9 35/4/9 33/5/9
f 26/31/10 34/32/10 36/33/10 27/34/10
f 29/35/11 32/36/11 31/37/11 30/38/11
f 27/39/12 29/40/12 28/12/12 25/13/12
f 46/2/13 47/23/13 48/3/13
f 43/6/14 44/24/14 45/7/14
f 40/11/15 41/10/15 42/21/15
f 37/15/16 38/14/16 39/22/16
f 34/1/17 35/4/17 36/30/17
f 31/8/18 32/29/18 33/5/18
f 28/12/19 29/40/19 30/9/19
f 25/13/20 26/16/20 27/39/20
f 8/41/21 5/42/21 3/43/21 12/44/21
f 22/45/22 10/46/22 2/47/22 13/48/22
f 16/49/23 14/50/23 1/51/23 4/52/23
f 21/53/24 17/54/24 6/55/24 7/56/24
f 19/57/25 9/58/25 11/59/25 24/60/25
f 20/61/26 23/62/26 15/63/26 18/64/26
