# Blender 5.0.0
# www.blender.org
o mesh_projectile_shard_lp_v001
v -0.405313 -0.118773 0.340274
v 0.411250 -0.118773 0.340274
v -0.005936 -0.118773 -0.680549
v -0.405313 0.118773 0.340274
v 0.411250 0.118773 0.340274
v -0.005936 0.118773 -0.680549
vn -0.0000 -1.0000 -0.0000
vn -0.0000 1.0000 -0.0000
vn -0.0000 -0.0000 1.0000
vn 0.9257 -0.0000 -0.3783
vn -0.9313 -0.0000 -0.3643
vt 0.157401 0.217369
vt 0.768620 0.498108
vt 0.157292 0.782963
vt 0.572892 0.657455
vt 0.853258 0.937820
vt 0.853258 0.657455
vt 0.572228 0.657455
vt 0.852594 0.937820
vt 0.852594 0.657455
s 0
f 1/1/1 3/2/1 2/3/1
f 4/1/2 5/3/2 6/2/2
f 1/4/3 5/5/3 4/6/3
f 1/4/3 2/5/3 5/6/3
f 2/7/4 6/8/4 5/9/4
f 2/7/4 3/8/4 6/9/4
f 3/4/5 4/5/5 6/6/5
f 3/4/5 1/5/5 4/6/5
