# Blender 5.0.0
# www.blender.org
mtllib mesh_projectile_shard_lp_v001.mtl
o mesh_projectile_shard_lp_v001
v 0.000000 -0.080000 0.000000
v 0.550000 -0.080000 0.000000
v 0.269002 -0.080000 -0.687580
v 0.000000 0.080000 0.000000
v 0.550000 0.080000 0.000000
v 0.269002 0.080000 -0.687580
vn -0.0000 1.0000 -0.0000
vn -0.0000 -1.0000 -0.0000
vn -0.0000 -0.0000 -1.0000
vn -0.9257 -0.0000 0.3783
vn 0.9313 -0.0000 0.3643
vt 0.157401 0.217369
vt 0.157292 0.782963
vt 0.768620 0.498108
vt 0.572892 0.657455
vt 0.853258 0.657455
vt 0.853258 0.937820
vt 0.572228 0.657455
vt 0.852594 0.657455
vt 0.852594 0.937820
s 0
usemtl Material.001
f 1/1/1 2/2/1 3/3/1
f 4/1/2 6/3/2 5/2/2
f 1/4/3 4/5/3 5/6/3
f 1/4/3 5/5/3 2/6/3
f 2/7/4 5/8/4 6/9/4
f 2/7/4 6/8/4 3/9/4
f 3/4/5 6/5/5 4/6/5
f 3/4/5 4/5/5 1/6/5
